<svg xmlns="http://www.w3.org/2000/svg" width="96" height="96" viewBox="0 0 96 96"><defs><clipPath id="kcj1a"><path fill="#fff" d="M0 48C0 21.49 21.49 0 48 0s48 21.49 48 48-21.49 48-48 48S0 74.51 0 48z"/></clipPath></defs><g><g><g><path fill="#fff" d="M0 48C0 21.49 21.49 0 48 0s48 21.49 48 48-21.49 48-48 48S0 74.51 0 48z"/><path fill="none" stroke="#eaeaea" stroke-miterlimit="20" stroke-width="12" d="M0 48C0 21.49 21.49 0 48 0s48 21.49 48 48-21.49 48-48 48S0 74.51 0 48z" clip-path="url(&quot;#kcj1a&quot;)"/></g><g><g><path fill="#eaeaea" d="M26 33.5a5.5 5.5 0 1 1 11 0 5.5 5.5 0 0 1-11 0z"/></g><g><path fill="#eaeaea" d="M61 33.5c0-3.038 2.239-5.5 5-5.5s5 2.462 5 5.5-2.239 5.5-5 5.5-5-2.462-5-5.5z"/></g></g><g><path fill="none" stroke="#eaeaea" stroke-miterlimit="20" stroke-width="6" d="M68.713 62.81s-18.386 17.476-40.603 0"/></g></g></g></svg>